<?xml version="1.0" encoding="UTF-8"?>
<svg width="40px" height="40px" viewBox="0 0 40 40" version="1.1" xmlns="http://www.w3.org/2000/svg" xmlns:xlink="http://www.w3.org/1999/xlink">
    <defs>
        <path d="M3.641,0 C1.631,0 0,1.63 0,3.642 L0,36.359 C0,38.369 1.631,40 3.641,40 L36.358,40 C38.37,40 40,38.369 40,36.359 L40,3.642 C40,1.63 38.37,0 36.358,0 L3.641,0 Z" id="path-1"></path>
        <linearGradient x1="13.5117932%" y1="81.5337463%" x2="260.996094%" y2="-116.621094%" id="linearGradient-3">
            <stop stop-color="#6D4BFF" offset="0%"></stop>
            <stop stop-color="#D62196" offset="100%"></stop>
        </linearGradient>
        <linearGradient x1="7.42178339%" y1="49.9816147%" x2="79.2211135%" y2="49.9816147%" id="linearGradient-4">
            <stop stop-color="#FFFFFF" stop-opacity="0" offset="0%"></stop>
            <stop stop-color="#FFFFFF" offset="100%"></stop>
        </linearGradient>
        <polygon id="path-5" points="0.538 11.896 2.135 12.782 8.342 1.598 6.745 0.712"></polygon>
        <linearGradient x1="82.8349745%" y1="18.4301859%" x2="24.2024322%" y2="83.7029114%" id="linearGradient-7">
            <stop stop-color="#FFFFFF" stop-opacity="0" offset="0%"></stop>
            <stop stop-color="#FFFFFF" offset="100%"></stop>
        </linearGradient>
        <polygon id="path-8" points="0.642 1.585 6.85 12.77 8.446 11.884 2.239 0.699"></polygon>
        <linearGradient x1="81.6274607%" y1="85.3367575%" x2="23.1513387%" y2="18.1318475%" id="linearGradient-10">
            <stop stop-color="#FFFFFF" stop-opacity="0" offset="0%"></stop>
            <stop stop-color="#FFFFFF" offset="100%"></stop>
        </linearGradient>
    </defs>
    <g id="Page-1" stroke="none" stroke-width="1" fill="none" fill-rule="evenodd">
        <g id="Group-26">
            <g id="Group-3">
                <mask id="mask-2" fill="white">
                    <use xlink:href="#path-1"></use>
                </mask>
                <g id="Clip-2"></g>
                <path d="M3.641,0 C1.631,0 0,1.63 0,3.642 L0,36.359 C0,38.369 1.631,40 3.641,40 L36.358,40 C38.37,40 40,38.369 40,36.359 L40,3.642 C40,1.63 38.37,0 36.358,0 L3.641,0 Z" id="Fill-1" fill="url(#linearGradient-3)" mask="url(#mask-2)"></path>
            </g>
            <path d="M11.0961,24.3291 C13.1291,24.3291 14.7781,25.9771 14.7781,28.0111 C14.7781,30.0441 13.1291,31.6931 11.0961,31.6931 C9.0631,31.6931 7.4141,30.0441 7.4141,28.0111 C7.4141,25.9771 9.0631,24.3291 11.0961,24.3291" id="Fill-4" fill="#0056D7"></path>
            <polygon id="Fill-6" fill="url(#linearGradient-4)" points="14.055 29.105 26.847 29.105 26.847 27.309 14.055 27.309"></polygon>
            <g id="Group-12" transform="translate(6.000000, 8.000000)">
                <path d="M0.8063,17.6468 C2.1213,15.2778 5.1073,14.4228 7.4763,15.7378 C9.8453,17.0528 10.7003,20.0388 9.3853,22.4078 C8.0703,24.7768 5.0843,25.6318 2.7153,24.3168 C0.3463,23.0018 -0.5087,20.0158 0.8063,17.6468" id="Fill-8" fill="#FFFFFF"></path>
                <path d="M10.7726,2.2172 C11.7596,0.4392 14.0006,-0.2018 15.7786,0.7842 C17.5566,1.7712 18.1986,4.0122 17.2116,5.7902 C16.2246,7.5682 13.9836,8.2102 12.2056,7.2232 C10.4276,6.2362 9.7856,3.9952 10.7726,2.2172" id="Fill-10" fill="#0258D9"></path>
            </g>
            <g id="Group-15" transform="translate(11.000000, 13.000000)">
                <mask id="mask-6" fill="white">
                    <use xlink:href="#path-5"></use>
                </mask>
                <g id="Clip-14"></g>
                <polygon id="Fill-13" fill="url(#linearGradient-7)" mask="url(#mask-6)" points="0.538 11.896 2.135 12.782 8.342 1.598 6.745 0.712"></polygon>
            </g>
            <path d="M17.6465,7.6909 C20.0155,6.3759 23.0015,7.2309 24.3165,9.5999 C25.6315,11.9689 24.7765,14.9549 22.4075,16.2699 C20.0385,17.5849 17.0525,16.7299 15.7375,14.3609 C14.4225,11.9919 15.2775,9.0059 17.6465,7.6909" id="Fill-16" fill="#FFFFFF"></path>
            <g id="Group-20" transform="translate(20.000000, 13.000000)">
                <mask id="mask-9" fill="white">
                    <use xlink:href="#path-8"></use>
                </mask>
                <g id="Clip-19"></g>
                <polygon id="Fill-18" fill="url(#linearGradient-10)" mask="url(#mask-9)" points="0.642 1.585 6.85 12.77 8.446 11.884 2.239 0.699"></polygon>
            </g>
            <g id="Group-25" transform="translate(23.000000, 23.000000)">
                <path d="M4.1395,1.7912 C5.9175,0.8042 8.1585,1.4462 9.1455,3.2242 C10.1325,5.0022 9.4905,7.2432 7.7125,8.2302 C5.9345,9.2172 3.6935,8.5752 2.7065,6.7972 C1.7205,5.0192 2.3615,2.7782 4.1395,1.7912" id="Fill-21" fill="#0258D9"></path>
                <path d="M5.9039,0.1051 C8.6129,0.1051 10.8099,2.3011 10.8099,5.0111 C10.8099,7.7201 8.6129,9.9171 5.9039,9.9171 C3.1949,9.9171 0.9979,7.7201 0.9979,5.0111 C0.9979,2.3011 3.1949,0.1051 5.9039,0.1051" id="Fill-23" fill="#FFFFFF"></path>
            </g>
        </g>
    </g>
</svg>
