<svg xmlns="http://www.w3.org/2000/svg" xmlns:xlink="http://www.w3.org/1999/xlink" viewBox="0 0 387.47 189.23"><defs><style>.cls-1{fill:url(#linear-gradient);}.cls-2{fill:url(#linear-gradient-2);}.cls-3{fill:url(#linear-gradient-3);}.cls-4{fill:url(#linear-gradient-4);}.cls-5{fill:url(#linear-gradient-5);}.cls-6{fill:#fff;}</style><linearGradient id="linear-gradient" x1="23.32" y1="19.11" x2="209.73" y2="175.69" gradientUnits="userSpaceOnUse"><stop offset="0.14" stop-color="#4fc5d3"/><stop offset="0.2" stop-color="#52bbd0"/><stop offset="0.42" stop-color="#5c9cc8"/><stop offset="0.61" stop-color="#6289c3"/><stop offset="0.74" stop-color="#6482c1"/></linearGradient><linearGradient id="linear-gradient-2" x1="1.58" y1="211.02" x2="200.03" y2="-0.05" gradientUnits="userSpaceOnUse"><stop offset="0" stop-color="#4fc5d3"/><stop offset="0.14" stop-color="#55b3ce"/><stop offset="0.4" stop-color="#5d98c7"/><stop offset="0.64" stop-color="#6288c3"/><stop offset="0.82" stop-color="#6482c1"/></linearGradient><linearGradient id="linear-gradient-3" x1="364.47" y1="158.53" x2="168.88" y2="12.27" gradientUnits="userSpaceOnUse"><stop offset="0" stop-color="#4fc5d3"/><stop offset="0.17" stop-color="#55b3ce"/><stop offset="0.5" stop-color="#5d98c7"/><stop offset="0.78" stop-color="#6288c3"/><stop offset="1" stop-color="#6482c1"/></linearGradient><linearGradient id="linear-gradient-4" x1="345.02" y1="184.53" x2="149.44" y2="38.27" xlink:href="#linear-gradient-3"/><linearGradient id="linear-gradient-5" x1="384.74" y1="131.43" x2="189.15" y2="-14.83" xlink:href="#linear-gradient-3"/></defs><title>TVQhub</title><g id="Layer_2" data-name="Layer 2"><g id="Layer_1-2" data-name="Layer 1"><path class="cls-1" d="M181.06,187.24,81,188.64a20.76,20.76,0,0,0-2.08.14A71,71,0,0,1,0,118.23V42.62A23.15,23.15,0,0,1,20.06,19.68L163.57.33a35.56,35.56,0,0,1,40.32,35.25V164.09A23.16,23.16,0,0,1,181.06,187.24Z"/><path class="cls-2" d="M181.84,181.64,85.12,183a19.2,19.2,0,0,0-2,.14A68.59,68.59,0,0,1,6.91,115v-73A22.36,22.36,0,0,1,26.28,19.76L164.93,1.06a34.36,34.36,0,0,1,39,34.05V159.27A22.36,22.36,0,0,1,181.84,181.64Z"/><path class="cls-3" d="M280.77,83q4.64,0,6.9,2.39c1.5,1.68,2.26,4.37,2.26,8.06v18.5a23.52,23.52,0,0,0,1.52,9.43c1,2.27,3.09,3.4,6.23,3.4q9.4,0,9.41-15.35V92.55a8.81,8.81,0,0,1,3-7.18A11.94,11.94,0,0,1,318,83q4.79,0,7.44,2.28T328,92.07v17.86q0,6.88.13,9.78v3.47c0,1.14,0,2.29.12,3.47s.15,2.21.19,3.09.07,1.67.07,2.34v2.65a6,6,0,0,1-3,5.43,13.33,13.33,0,0,1-7.2,1.89q-7.44,0-8.71-5.72a29.5,29.5,0,0,1-.75-3.44q-6.06,9.54-16.16,9.54-11.73,0-17.41-7.32t-5.68-19.82v-23q0-9.58,11.29-9.59Z"/><path class="cls-4" d="M265.92,115.29v-23a15.88,15.88,0,0,1,.61-4.49c-3.83-3.38-9-5.1-15.42-5.1a20.1,20.1,0,0,0-8.35,1.89,13.14,13.14,0,0,0-6.08,5q.38-29.91.38-30.54a9,9,0,0,0-2.64-6.82q-2.5-2.39-7.4-2.39-10.67,0-10.66,10.09l.5-.75v57.93q0,1-.06,3.09c0,1.39-.11,3.13-.19,5.24s-.15,3.8-.19,5.11-.06,2.25-.06,2.84a7.85,7.85,0,0,0,2.88,6.56,10.92,10.92,0,0,0,7.15,2.27,13.31,13.31,0,0,0,7.78-2,6.79,6.79,0,0,0,3-6.06V110.88a10.92,10.92,0,0,1,2.67-7.7,8.4,8.4,0,0,1,6.23-2.78,7.28,7.28,0,0,1,5.85,2.53q2,2.38,2,7.19,0,1.77-.38,12t-.38,11.48A7,7,0,0,0,256,140a11.88,11.88,0,0,0,7.32,2.27,13.84,13.84,0,0,0,7.95-2.14,7,7,0,0,0,1.85-2c-.24-.28-.51-.54-.74-.83C268.09,131.85,265.92,124.42,265.92,115.29Z"/><path class="cls-5" d="M344,49.92s-20.18-1.3-20.26,5.09l.09,4L324,80.3a12.14,12.14,0,0,1,3.82,2.16c2.62,2.24,3.94,5.47,3.94,9.61v17.86c0,4.52,0,7.76.12,9.62v3.63c0,1,0,2.13.11,3.21s.15,2.27.2,3.17.07,1.8.07,2.52v2.65a9.58,9.58,0,0,1-2.49,6.65,10.88,10.88,0,0,0,2.06.29q8.34.38,9.85-6.06L342,134a14.47,14.47,0,0,0,6.43,6.06,19.2,19.2,0,0,0,9.09,2.27q13.26,0,21.58-8.83t8.33-22a29.55,29.55,0,0,0-8-20.83q-7.95-8.45-20.19-8.45-11,0-15.52,7m19.05,32.11a10.74,10.74,0,0,1-8.2,3.91,9.76,9.76,0,0,1-7.57-3.55,13.19,13.19,0,0,1-3.28-9.13q0-6.21,3.4-9.51a11.65,11.65,0,0,1,8.46-3.17,10.35,10.35,0,0,1,7.57,3.31,11.82,11.82,0,0,1,3.16,8.68l.12-.13A13.8,13.8,0,0,1,362.86,121.35Z"/><path class="cls-6" d="M64.63,67.07l-1.3-3.2a2.65,2.65,0,0,1-.15-.57,9.54,9.54,0,0,1,.56-4.54,2.16,2.16,0,0,0-2-3l-40.14-.21c-3.26,0-5.84,4.43-5.84,7.08,0,2.91,2.62,7.52,5.87,7.54l24.58.18a2.17,2.17,0,0,1,2.15,2.17l-.21,53.92a5.93,5.93,0,0,0,6.11,6.36,5.77,5.77,0,0,0,6.2-6.18l0-54.46A2.16,2.16,0,0,1,62.61,70h0A2.15,2.15,0,0,0,64.63,67.07Z"/><path class="cls-6" d="M111.92,95c0-.51,0-1,0-1.54a2.16,2.16,0,0,0-4-1.12l-7.48,13.27a2.16,2.16,0,0,1-3.89-.27l-18-45.81c-1.91-4.7-9.07-5.7-12,1a2.09,2.09,0,0,0,0,1.61l6.5,16c8.26,20.67,20.59,51.63,21.67,52.94a3.71,3.71,0,0,0,2.86,1.72,3.06,3.06,0,0,0,2.53-1.34c1.09-1.37,9.83-15.38,13.8-21.8a2.18,2.18,0,0,0,.18-1.88A38,38,0,0,1,111.92,95Z"/><path class="cls-6" d="M194.85,121.27c1.38-1-5.43-4-10.19-4.1-5.76-.18-14.34,1.77-15.36,2-4.27.88-12.18,2.23-15,2.23-13.67,0-25.21-13.17-25.21-26.86s11.12-25.83,24.78-25.83,24.54,8.67,25.4,22.91a44,44,0,0,1,.32,5.24,23.08,23.08,0,0,1-.24,2.89,55.21,55.21,0,0,1-2.27,9.57,2.15,2.15,0,0,0,2.37,2.82,28,28,0,0,1,4.2-.32h.85a20.31,20.31,0,0,1,3.13.39,2.14,2.14,0,0,0,2.46-1.4A40.71,40.71,0,0,0,192,99.33c.09-2.58,0-4.44,0-4.75,0-.51,0-1,0-1.5-.79-20.36-17.54-37.54-38-37.54-21,0-38,18-38,39a38.24,38.24,0,0,0,38,38.26c5.75,0,15.47-2.47,21-4.34,3.9-1.32,8.44-2.17,12.27-1.08a34.83,34.83,0,0,1,4.49,1.76,2.16,2.16,0,0,0,2.94-2.65C193.74,124.15,193.34,121.72,194.85,121.27Z"/></g></g></svg>