<svg id="Layer_1" data-name="Layer 1" xmlns="http://www.w3.org/2000/svg" xmlns:xlink="http://www.w3.org/1999/xlink" viewBox="0 0 388.57 191.5"><defs><style>.cls-1{fill:none;}.cls-2{clip-path:url(#clip-path);}.cls-3{fill:#56b4ce;}.cls-4{fill:#56b3ce;}.cls-5{fill:#57b2ce;}.cls-6{fill:#57b1ce;}.cls-7{fill:#57b0ce;}.cls-8{fill:#58b0ce;}.cls-9{fill:#58afcd;}.cls-10{fill:#58aecd;}.cls-11{fill:#58adcd;}.cls-12{fill:#59adcd;}.cls-13{fill:#59accd;}.cls-14{fill:#59abcc;}.cls-15{fill:#59aacc;}.cls-16{fill:#5aaacc;}.cls-17{fill:#5aa9cc;}.cls-18{fill:#5aa8cc;}.cls-19{fill:#5aa7cb;}.cls-20{fill:#5ba7cb;}.cls-21{fill:#5ba6cb;}.cls-22{fill:#5ba5cb;}.cls-23{fill:#5ba4cb;}.cls-24{fill:#5ca3ca;}.cls-25{fill:#5ca2ca;}.cls-26{fill:#5ca1ca;}.cls-27{fill:#5ca0ca;}.cls-28{fill:#5da0c9;}.cls-29{fill:#5d9fc9;}.cls-30{fill:#5d9ec9;}.cls-31{fill:#5e9dc9;}.cls-32{fill:#5e9cc8;}.cls-33{fill:#5e9bc8;}.cls-34{fill:#5e9ac8;}.cls-35{fill:#5f99c7;}.cls-36{fill:#5f98c7;}.cls-37{clip-path:url(#clip-path-2);}.cls-38{fill:#5f97c7;}.cls-39{fill:#6096c6;}.cls-40{fill:#6095c6;}.cls-41{fill:#6094c6;}.cls-42{fill:#6093c5;}.cls-43{fill:#6192c5;}.cls-44{fill:#6191c5;}.cls-45{fill:#6191c4;}.cls-46{fill:#6190c4;}.cls-47{fill:#618fc4;}.cls-48{fill:#628ec4;}.cls-49{fill:#628dc3;}.cls-50{fill:#628cc3;}.cls-51{fill:#628bc3;}.cls-52{fill:#638ac2;}.cls-53{fill:#6389c2;}.cls-54{clip-path:url(#clip-path-3);}.cls-55{fill:#53bcd0;}.cls-56{fill:#54bbd0;}.cls-57{fill:#54bad0;}.cls-58{fill:#54b9d0;}.cls-59{fill:#55b9d0;}.cls-60{fill:#55b8cf;}.cls-61{fill:#55b7cf;}.cls-62{fill:#55b6cf;}.cls-63{fill:#56b5cf;}.cls-64{fill:#56b4cf;}.cls-65{fill:#4fc5d3;}.cls-66{fill:#50c3d2;}.cls-67{fill:#51c2d2;}.cls-68{fill:#51c0d1;}.cls-69{fill:#52bfd1;}.cls-70{fill:#52bed1;}.cls-71{fill:#53bed1;}.cls-72{fill:#53bdd0;}.cls-73{fill:url(#linear-gradient);}.cls-74{fill:#fff;}</style><clipPath id="clip-path" transform="translate(-5.71 -3.26)"><path class="cls-1" d="M279.23,84.84q5,0,7.44,2.58c1.62,1.81,2.44,4.71,2.44,8.69v19.94c0,4.34.54,7.74,1.64,10.18s3.33,3.66,6.72,3.66q10.14,0,10.14-16.55V95.15a9.49,9.49,0,0,1,3.27-7.73q3.14-2.58,8.44-2.58t8,2.45q2.85,2.46,2.85,7.35V113.9c0,4.95.05,8.46.14,10.55v3.74c0,1.22,0,2.47.14,3.74s.15,2.38.2,3.33.07,1.8.07,2.52v2.86a6.5,6.5,0,0,1-3.27,5.85,14.32,14.32,0,0,1-7.76,2q-8,0-9.39-6.17a33.22,33.22,0,0,1-.81-3.7Q303,149,292.1,148.94q-12.66,0-18.78-7.89t-6.12-21.37V94.91q0-10.34,12.17-10.34Z"/></clipPath><clipPath id="clip-path-2" transform="translate(-5.71 -3.26)"><path class="cls-1" d="M263.22,119.68V94.91a17.16,17.16,0,0,1,.66-4.84c-4.14-3.65-9.66-5.5-16.62-5.5a21.73,21.73,0,0,0-9,2,14.17,14.17,0,0,0-6.55,5.45q.41-32.25.41-32.94a9.69,9.69,0,0,0-2.84-7.34q-2.72-2.6-8-2.59-11.5,0-11.5,10.89l.54-.82v62.46c0,.73,0,1.84-.06,3.34s-.12,3.38-.21,5.65-.16,4.1-.2,5.51-.07,2.43-.07,3.06a8.49,8.49,0,0,0,3.11,7.08,11.78,11.78,0,0,0,7.71,2.45,14.41,14.41,0,0,0,8.39-2.18,7.34,7.34,0,0,0,3.24-6.53V114.92a11.78,11.78,0,0,1,2.88-8.3,9,9,0,0,1,6.72-3,7.87,7.87,0,0,1,6.31,2.73c1.46,1.72,2.19,4.31,2.19,7.75q0,1.91-.41,12.93t-.4,12.39a7.52,7.52,0,0,0,3,6.94,12.8,12.8,0,0,0,7.89,2.45,15,15,0,0,0,8.58-2.32,7.49,7.49,0,0,0,2-2.1c-.26-.31-.54-.58-.79-.9C265.56,137.54,263.22,129.53,263.22,119.68Z"/></clipPath><clipPath id="clip-path-3" transform="translate(-5.71 -3.26)"><path class="cls-1" d="M347.45,49.19s-21.77-1.4-21.86,5.49L325.7,59l.11,23a12.93,12.93,0,0,1,4.12,2.33c2.82,2.41,4.25,5.9,4.25,10.36V113.9c0,4.88.05,8.37.13,10.37v3.92c0,1.13,0,2.3.12,3.46.09,1.31.16,2.44.21,3.42s.08,1.93.08,2.71v2.86a10.36,10.36,0,0,1-2.69,7.18,11.89,11.89,0,0,0,2.23.3q9,.42,10.62-6.53l.4-1.77a15.68,15.68,0,0,0,6.95,6.54,20.66,20.66,0,0,0,9.79,2.45q14.3,0,23.28-9.53t9-23.68a31.82,31.82,0,0,0-8.58-22.45Q377.15,84,363.94,84q-11.83,0-16.74,7.57m20.55,34.61a11.59,11.59,0,0,1-8.85,4.22,10.52,10.52,0,0,1-8.16-3.83,14.22,14.22,0,0,1-3.54-9.84q0-6.7,3.67-10.26a12.58,12.58,0,0,1,9.12-3.42,11.14,11.14,0,0,1,8.17,3.58q3.39,3.44,3.4,9.35l.14-.14A14.88,14.88,0,0,1,367.75,126.21Z"/></clipPath><linearGradient id="linear-gradient" x1="28.04" y1="28.04" x2="163.45" y2="163.45" gradientUnits="userSpaceOnUse"><stop offset="0" stop-color="#4fc5d3"/><stop offset="1" stop-color="#6482c1"/></linearGradient></defs><title>tvqhub-icon</title><g class="cls-2"><polygon class="cls-3" points="323.01 145.68 325.03 142.99 325.03 145.68 323.01 145.68"/><polygon class="cls-4" points="320.19 145.68 325.03 139.2 325.03 142.99 323.01 145.68 320.19 145.68"/><polygon class="cls-5" points="317.36 145.68 325.03 135.42 325.03 139.2 320.19 145.68 317.36 145.68"/><polygon class="cls-6" points="314.53 145.68 325.03 131.64 325.03 135.42 317.36 145.68 314.53 145.68"/><polygon class="cls-7" points="311.7 145.68 325.03 127.86 325.03 131.64 314.53 145.68 311.7 145.68"/><polygon class="cls-8" points="308.88 145.68 325.03 124.08 325.03 127.86 311.7 145.68 308.88 145.68"/><polygon class="cls-9" points="306.05 145.68 325.03 120.29 325.03 124.08 308.88 145.68 306.05 145.68"/><polygon class="cls-10" points="303.22 145.68 325.03 116.51 325.03 120.29 306.05 145.68 303.22 145.68"/><polygon class="cls-11" points="300.39 145.68 325.03 112.73 325.03 116.51 303.22 145.68 300.39 145.68"/><polygon class="cls-12" points="297.56 145.68 325.03 108.95 325.03 112.73 300.39 145.68 297.56 145.68"/><polygon class="cls-13" points="294.73 145.68 325.03 105.17 325.03 108.95 297.56 145.68 294.73 145.68"/><polygon class="cls-14" points="291.91 145.68 325.03 101.39 325.03 105.17 294.73 145.68 291.91 145.68"/><polygon class="cls-15" points="289.08 145.68 325.03 97.6 325.03 101.39 291.91 145.68 289.08 145.68"/><polygon class="cls-16" points="286.25 145.68 325.03 93.82 325.03 97.6 289.08 145.68 286.25 145.68"/><polygon class="cls-17" points="283.42 145.68 325.03 90.04 325.03 93.82 286.25 145.68 283.42 145.68"/><polygon class="cls-18" points="280.59 145.68 325.03 86.26 325.03 90.04 283.42 145.68 280.59 145.68"/><polygon class="cls-19" points="277.77 145.68 325.03 82.47 325.03 86.26 280.59 145.68 277.77 145.68"/><polygon class="cls-20" points="274.94 145.68 323.07 81.31 325.03 81.31 325.03 82.47 277.77 145.68 274.94 145.68"/><polygon class="cls-21" points="272.11 145.68 320.25 81.31 323.07 81.31 274.94 145.68 272.11 145.68"/><polygon class="cls-22" points="269.28 145.68 317.42 81.31 320.25 81.31 272.11 145.68 269.28 145.68"/><polygon class="cls-22" points="268.32 145.68 267.12 144.79 314.59 81.31 317.42 81.31 269.28 145.68 268.32 145.68"/><polygon class="cls-23" points="267.12 144.79 265.31 143.43 311.76 81.31 314.59 81.31 267.12 144.79"/><polygon class="cls-24" points="265.31 143.43 263.5 142.07 308.93 81.31 311.76 81.31 265.31 143.43"/><polygon class="cls-24" points="263.5 142.07 261.68 140.72 306.11 81.31 308.93 81.31 263.5 142.07"/><polygon class="cls-25" points="261.68 140.72 261.48 140.57 261.48 137.21 303.28 81.31 306.11 81.31 261.68 140.72"/><polygon class="cls-26" points="261.48 133.42 300.45 81.31 303.28 81.31 261.48 137.21 261.48 133.42"/><polygon class="cls-27" points="261.48 129.64 297.62 81.31 300.45 81.31 261.48 133.42 261.48 129.64"/><polygon class="cls-28" points="261.48 125.86 294.79 81.31 297.62 81.31 261.48 129.64 261.48 125.86"/><polygon class="cls-29" points="261.48 122.08 291.96 81.31 294.79 81.31 261.48 125.86 261.48 122.08"/><polygon class="cls-30" points="261.48 118.3 289.14 81.31 291.96 81.31 261.48 122.08 261.48 118.3"/><polygon class="cls-30" points="261.48 114.52 286.31 81.31 289.14 81.31 261.48 118.3 261.48 114.52"/><polygon class="cls-31" points="261.48 110.73 283.48 81.31 286.31 81.31 261.48 114.52 261.48 110.73"/><polygon class="cls-32" points="261.48 106.95 280.65 81.31 283.48 81.31 261.48 110.73 261.48 106.95"/><polygon class="cls-32" points="261.48 103.17 277.82 81.31 280.65 81.31 261.48 106.95 261.48 103.17"/><polygon class="cls-33" points="261.48 99.39 275 81.31 277.82 81.31 261.48 103.17 261.48 99.39"/><polygon class="cls-33" points="261.48 95.61 272.17 81.31 275 81.31 261.48 99.39 261.48 95.61"/><polygon class="cls-34" points="261.48 91.82 269.34 81.31 272.17 81.31 261.48 95.61 261.48 91.82"/><polygon class="cls-35" points="261.48 88.04 266.51 81.31 269.34 81.31 261.48 91.82 261.48 88.04"/><polygon class="cls-35" points="261.48 84.26 263.68 81.31 266.51 81.31 261.48 88.04 261.48 84.26"/><polygon class="cls-36" points="263.68 81.31 261.48 84.26 261.48 81.31 263.68 81.31"/></g><g class="cls-37"><polygon class="cls-23" points="263.73 145.55 265.26 143.5 265.26 145.55 263.73 145.55"/><polygon class="cls-24" points="260.9 145.55 265.26 139.72 265.26 143.5 263.73 145.55 260.9 145.55"/><polygon class="cls-24" points="258.07 145.55 265.26 135.94 265.26 139.72 260.9 145.55 258.07 145.55"/><polygon class="cls-25" points="255.24 145.55 265.26 132.16 265.26 135.94 258.07 145.55 255.24 145.55"/><polygon class="cls-26" points="252.41 145.55 265.26 128.38 265.26 132.16 255.24 145.55 252.41 145.55"/><polygon class="cls-27" points="249.59 145.55 265.26 124.59 265.26 128.38 252.41 145.55 249.59 145.55"/><polygon class="cls-28" points="246.76 145.55 265.26 120.81 265.26 124.59 249.59 145.55 246.76 145.55"/><polygon class="cls-29" points="243.93 145.55 265.26 117.03 265.26 120.81 246.76 145.55 243.93 145.55"/><polygon class="cls-30" points="241.1 145.55 265.26 113.25 265.26 117.03 243.93 145.55 241.1 145.55"/><polygon class="cls-30" points="238.28 145.55 265.26 109.47 265.26 113.25 241.1 145.55 238.28 145.55"/><polygon class="cls-31" points="235.45 145.55 265.26 105.69 265.26 109.47 238.28 145.55 235.45 145.55"/><polygon class="cls-32" points="232.62 145.55 265.26 101.9 265.26 105.69 235.45 145.55 232.62 145.55"/><polygon class="cls-32" points="229.79 145.55 265.26 98.12 265.26 101.9 232.62 145.55 229.79 145.55"/><polygon class="cls-33" points="226.96 145.55 265.26 94.34 265.26 98.12 229.79 145.55 226.96 145.55"/><polygon class="cls-33" points="224.13 145.55 265.26 90.56 265.26 94.34 226.96 145.55 224.13 145.55"/><polygon class="cls-34" points="221.31 145.55 265.26 86.78 265.26 90.56 224.13 145.55 221.31 145.55"/><polygon class="cls-35" points="218.48 145.55 265.26 82.99 265.26 86.78 221.31 145.55 218.48 145.55"/><polygon class="cls-35" points="215.65 145.55 265.26 79.21 265.26 82.99 218.48 145.55 215.65 145.55"/><polygon class="cls-36" points="212.82 145.55 265.26 75.43 265.26 79.21 215.65 145.55 212.82 145.55"/><polygon class="cls-38" points="209.99 145.55 264.04 73.28 265.26 74.19 265.26 75.43 212.82 145.55 209.99 145.55"/><polygon class="cls-38" points="207.17 145.55 262.22 71.92 264.04 73.28 209.99 145.55 207.17 145.55"/><polygon class="cls-39" points="204.34 145.55 260.41 70.57 262.22 71.92 207.17 145.55 204.34 145.55"/><polygon class="cls-39" points="204.07 142.13 258.6 69.21 260.41 70.57 204.34 145.55 204.07 145.55 204.07 142.13"/><polygon class="cls-40" points="204.07 138.35 256.78 67.85 258.6 69.21 204.07 142.13 204.07 138.35"/><polygon class="cls-40" points="204.07 134.57 254.97 66.5 256.78 67.85 204.07 138.35 204.07 134.57"/><polygon class="cls-41" points="204.07 130.78 253.15 65.14 254.97 66.5 204.07 134.57 204.07 130.78"/><polygon class="cls-42" points="204.07 127 251.34 63.78 253.15 65.14 204.07 130.78 204.07 127"/><polygon class="cls-42" points="204.07 123.22 249.53 62.43 251.34 63.78 204.07 127 204.07 123.22"/><polygon class="cls-43" points="204.07 119.44 247.71 61.07 249.53 62.43 204.07 123.22 204.07 119.44"/><polygon class="cls-43" points="204.07 115.66 245.9 59.72 247.71 61.07 204.07 119.44 204.07 115.66"/><polygon class="cls-44" points="204.07 111.88 244.09 58.36 245.9 59.72 204.07 115.66 204.07 111.88"/><polygon class="cls-45" points="204.07 108.09 242.27 57 244.09 58.36 204.07 111.88 204.07 108.09"/><polygon class="cls-46" points="204.07 104.31 240.46 55.65 242.27 57 204.07 108.09 204.07 104.31"/><polygon class="cls-46" points="204.07 100.53 238.64 54.29 240.46 55.65 204.07 104.31 204.07 100.53"/><polygon class="cls-47" points="204.07 96.75 236.83 52.93 238.64 54.29 204.07 100.53 204.07 96.75"/><polygon class="cls-47" points="204.07 92.97 235.02 51.58 236.83 52.93 204.07 96.75 204.07 92.97"/><polygon class="cls-48" points="204.07 89.18 233.2 50.22 235.02 51.58 204.07 92.97 204.07 89.18"/><polygon class="cls-48" points="204.07 85.4 231.39 48.86 233.2 50.22 204.07 89.18 204.07 85.4"/><polygon class="cls-49" points="204.07 81.62 229.57 47.51 231.39 48.86 204.07 85.4 204.07 81.62"/><polygon class="cls-49" points="204.07 77.84 227.76 46.15 229.57 47.51 204.07 81.62 204.07 77.84"/><polygon class="cls-50" points="204.07 74.06 225.1 45.93 227.47 45.93 227.76 46.15 204.07 77.84 204.07 74.06"/><polygon class="cls-50" points="204.07 70.27 222.27 45.93 225.1 45.93 204.07 74.06 204.07 70.27"/><polygon class="cls-51" points="204.07 66.49 219.44 45.93 222.27 45.93 204.07 70.27 204.07 66.49"/><polygon class="cls-51" points="204.07 62.71 216.61 45.93 219.44 45.93 204.07 66.49 204.07 62.71"/><polygon class="cls-51" points="204.07 58.93 213.79 45.93 216.61 45.93 204.07 62.71 204.07 58.93"/><polygon class="cls-52" points="204.07 55.15 210.96 45.93 213.79 45.93 204.07 58.93 204.07 55.15"/><polygon class="cls-52" points="204.07 51.37 208.13 45.93 210.96 45.93 204.07 55.15 204.07 51.37"/><polygon class="cls-53" points="204.07 47.58 205.3 45.93 208.13 45.93 204.07 51.37 204.07 47.58"/><polygon class="cls-53" points="205.3 45.93 204.07 47.58 204.07 45.93 205.3 45.93"/></g><g class="cls-54"><polygon class="cls-55" points="365.14 127.18 365.98 126.05 365.98 127.18 365.14 127.18"/><polygon class="cls-56" points="362.31 127.18 365.98 122.26 365.98 126.05 365.14 127.18 362.31 127.18"/><polygon class="cls-57" points="359.48 127.18 365.98 118.48 365.98 122.26 362.31 127.18 359.48 127.18"/><polygon class="cls-58" points="356.65 127.18 365.98 114.7 365.98 118.48 359.48 127.18 356.65 127.18"/><polygon class="cls-59" points="353.82 127.18 365.98 110.92 365.98 114.7 356.65 127.18 353.82 127.18"/><polygon class="cls-60" points="351 127.18 365.98 107.14 365.98 110.92 353.82 127.18 351 127.18"/><polygon class="cls-61" points="348.17 127.18 365.98 103.36 365.98 107.14 351 127.18 348.17 127.18"/><polygon class="cls-62" points="345.34 127.18 365.64 100.03 365.98 100.28 365.98 103.36 348.17 127.18 345.34 127.18"/><polygon class="cls-63" points="342.51 127.18 362.97 99.82 365.37 99.82 365.64 100.03 345.34 127.18 342.51 127.18"/><polygon class="cls-64" points="342.12 127.18 341.49 126.71 341.49 124.77 360.14 99.82 362.97 99.82 342.51 127.18 342.12 127.18"/><polygon class="cls-3" points="341.49 120.98 357.31 99.82 360.14 99.82 341.49 124.77 341.49 120.98"/><polygon class="cls-4" points="341.49 117.2 354.48 99.82 357.31 99.82 341.49 120.98 341.49 117.2"/><polygon class="cls-5" points="341.49 113.42 351.65 99.82 354.48 99.82 341.49 117.2 341.49 113.42"/><polygon class="cls-6" points="341.49 109.64 348.83 99.82 351.65 99.82 341.49 113.42 341.49 109.64"/><polygon class="cls-7" points="341.49 105.86 346 99.82 348.83 99.82 341.49 109.64 341.49 105.86"/><polygon class="cls-8" points="341.49 102.07 343.17 99.82 346 99.82 341.49 105.86 341.49 102.07"/><polygon class="cls-9" points="343.17 99.82 341.49 102.07 341.49 99.82 343.17 99.82"/><polygon class="cls-65" points="376.85 145.55 388.57 129.87 388.57 145.55 376.85 145.55"/><polygon class="cls-65" points="374.02 145.55 388.57 126.09 388.57 129.87 376.85 145.55 374.02 145.55"/><polygon class="cls-66" points="371.19 145.55 388.57 122.31 388.57 126.09 374.02 145.55 371.19 145.55"/><polygon class="cls-67" points="368.37 145.55 388.57 118.53 388.57 122.31 371.19 145.55 368.37 145.55"/><polygon class="cls-68" points="365.54 145.55 388.57 114.75 388.57 118.53 368.37 145.55 365.54 145.55"/><polygon class="cls-69" points="362.71 145.55 388.57 110.97 388.57 114.75 365.54 145.55 362.71 145.55"/><polygon class="cls-70" points="359.88 145.55 388.57 107.18 388.57 110.97 362.71 145.55 359.88 145.55"/><polygon class="cls-71" points="357.05 145.55 388.57 103.4 388.57 107.18 359.88 145.55 357.05 145.55"/><polygon class="cls-72" points="354.23 145.55 388.57 99.62 388.57 103.4 357.05 145.55 354.23 145.55"/><polygon class="cls-55" points="351.4 145.55 388.57 95.84 388.57 99.62 354.23 145.55 351.4 145.55"/><polygon class="cls-56" points="348.57 145.55 388.57 92.06 388.57 95.84 351.4 145.55 348.57 145.55"/><polygon class="cls-57" points="345.74 145.55 388.57 88.27 388.57 92.06 348.57 145.55 345.74 145.55"/><polygon class="cls-58" points="342.91 145.55 388.57 84.49 388.57 88.27 345.74 145.55 342.91 145.55"/><polygon class="cls-59" points="340.08 145.55 388.57 80.71 388.57 84.49 342.91 145.55 340.08 145.55"/><polygon class="cls-60" points="337.26 145.55 388.57 76.93 388.57 80.71 340.08 145.55 337.26 145.55"/><polygon class="cls-61" points="334.43 145.55 387.29 74.86 388.57 75.81 388.57 76.93 337.26 145.55 334.43 145.55"/><polygon class="cls-62" points="331.6 145.55 385.48 73.5 387.29 74.86 334.43 145.55 331.6 145.55"/><polygon class="cls-63" points="328.77 145.55 383.67 72.14 385.48 73.5 331.6 145.55 328.77 145.55"/><polygon class="cls-64" points="325.94 145.55 381.85 70.79 383.67 72.14 328.77 145.55 325.94 145.55"/><polygon class="cls-3" points="323.12 145.55 380.04 69.43 381.85 70.79 325.94 145.55 323.12 145.55"/><polygon class="cls-4" points="320.77 145.55 320.46 145.31 378.22 68.07 380.04 69.43 323.12 145.55 320.77 145.55"/><polygon class="cls-5" points="320.46 145.31 319.88 144.88 319.88 142.31 376.41 66.72 378.22 68.07 320.46 145.31"/><polygon class="cls-6" points="319.88 138.53 374.6 65.36 376.41 66.72 319.88 142.31 319.88 138.53"/><polygon class="cls-7" points="319.88 134.75 372.78 64 374.6 65.36 319.88 138.53 319.88 134.75"/><polygon class="cls-8" points="319.88 130.97 370.97 62.65 372.78 64 319.88 134.75 319.88 130.97"/><polygon class="cls-9" points="319.88 127.19 369.16 61.29 370.97 62.65 319.88 130.97 319.88 127.19"/><polygon class="cls-10" points="319.88 123.4 367.34 59.94 369.16 61.29 319.88 127.19 319.88 123.4"/><polygon class="cls-11" points="319.88 119.62 365.53 58.58 367.34 59.94 319.88 123.4 319.88 119.62"/><polygon class="cls-12" points="319.88 115.84 363.71 57.22 365.53 58.58 319.88 119.62 319.88 115.84"/><polygon class="cls-13" points="319.88 112.06 361.9 55.87 363.71 57.22 319.88 115.84 319.88 112.06"/><polygon class="cls-14" points="319.88 108.28 360.09 54.51 361.9 55.87 319.88 112.06 319.88 108.28"/><polygon class="cls-15" points="319.88 104.49 358.27 53.15 360.09 54.51 319.88 108.28 319.88 104.49"/><polygon class="cls-16" points="319.88 100.71 356.46 51.8 358.27 53.15 319.88 104.49 319.88 100.71"/><polygon class="cls-17" points="319.88 96.93 354.64 50.44 356.46 51.8 319.88 100.71 319.88 96.93"/><polygon class="cls-18" points="319.88 93.15 352.83 49.08 354.64 50.44 319.88 96.93 319.88 93.15"/><polygon class="cls-19" points="319.88 89.37 351.02 47.73 352.83 49.08 319.88 93.15 319.88 89.37"/><polygon class="cls-20" points="319.88 85.58 349.2 46.37 351.02 47.73 319.88 89.37 319.88 85.58"/><polygon class="cls-21" points="319.88 81.8 347.39 45.02 349.2 46.37 319.88 85.58 319.88 81.8"/><polygon class="cls-22" points="319.88 78.02 344.92 44.53 346.74 44.53 347.39 45.02 319.88 81.8 319.88 78.02"/><polygon class="cls-22" points="319.88 74.24 342.1 44.53 344.92 44.53 319.88 78.02 319.88 74.24"/><polygon class="cls-23" points="319.88 70.46 339.27 44.53 342.1 44.53 319.88 74.24 319.88 70.46"/><polygon class="cls-24" points="319.88 66.67 336.44 44.53 339.27 44.53 319.88 70.46 319.88 66.67"/><polygon class="cls-24" points="319.88 62.89 333.61 44.53 336.44 44.53 319.88 66.67 319.88 62.89"/><polygon class="cls-25" points="319.88 59.11 330.78 44.53 333.61 44.53 319.88 62.89 319.88 59.11"/><polygon class="cls-26" points="319.88 55.33 327.96 44.53 330.78 44.53 319.88 59.11 319.88 55.33"/><polygon class="cls-27" points="319.88 51.55 325.13 44.53 327.96 44.53 319.88 55.33 319.88 51.55"/><polygon class="cls-28" points="319.88 47.77 322.3 44.53 325.13 44.53 319.88 51.55 319.88 47.77"/><polygon class="cls-29" points="322.3 44.53 319.88 47.77 319.88 44.53 322.3 44.53"/></g><rect class="cls-73" width="191.5" height="191.5" rx="95.75"/><path class="cls-74" d="M67.52,77.81A6.69,6.69,0,0,1,69,70.34l-35.26-.18c-2.6,0-4.67,3.54-4.67,5.66,0,2.33,2.09,6,4.7,6L55.14,82,55,126.88A4.74,4.74,0,0,0,59.85,132a4.6,4.6,0,0,0,5-4.94l0-45.33,4.36.06Z" transform="translate(-5.71 -3.26)"/><path class="cls-74" d="M106,101.71a31.38,31.38,0,0,1,2.6-12.44L95,113.37l-15.71-40a4.84,4.84,0,0,0-7.16-2.21,4.94,4.94,0,0,0-1.74,6l4.52,11.1c6.62,16.54,16.48,41.31,17.34,42.37A3,3,0,0,0,94.55,132a2.46,2.46,0,0,0,2-1.07c.91-1.15,8.57-13.44,11.48-18.16A30.37,30.37,0,0,1,106,101.71Z" transform="translate(-5.71 -3.26)"/><path class="cls-74" d="M172.35,122.72c1.1-.84-4.35-3.17-8.15-3.29-4.62-.14-11.48,1.42-12.29,1.59a92.35,92.35,0,0,1-12,1.78c-10.94,0-20.18-10.54-20.18-21.49s8.9-20.67,19.84-20.67S159.23,87.58,159.92,99a33.46,33.46,0,0,1,.26,4.18,17,17,0,0,1-.2,2.32,40.93,40.93,0,0,1-3,10.57,24.16,24.16,0,0,1,6.41-.91h.68a17.19,17.19,0,0,1,3.89.64c1.52-3.32,1.95-7.59,2.06-10.64.07-2.05,0-3.55,0-3.8s0-.8,0-1.19c-.64-16.3-14-30-30.42-30-16.79,0-30.45,14.43-30.45,31.24A30.61,30.61,0,0,0,139.58,132c4.6,0,12.38-2,16.77-3.47,3.12-1.06,6.75-1.74,9.82-.86,2.46.7,5.45,2.36,7.71,3.28C173.88,130.92,169.85,123.46,172.35,122.72Z" transform="translate(-5.71 -3.26)"/></svg>